<mxfile host="65bd71144e">
    <diagram id="Q6H8XPNYbtDZHGbil2yH" name="Page-1">
        <mxGraphModel dx="2422" dy="650" grid="1" gridSize="10" guides="1" tooltips="1" connect="1" arrows="1" fold="1" page="1" pageScale="1" pageWidth="850" pageHeight="1100" math="0" shadow="0">
            <root>
                <mxCell id="0"/>
                <mxCell id="1" parent="0"/>
                <mxCell id="144" value="" style="group" parent="1" vertex="1" connectable="0">
                    <mxGeometry x="-30" y="160" width="420" height="390" as="geometry"/>
                </mxCell>
                <mxCell id="4" value="&lt;font style=&quot;font-size: 20px&quot;&gt;User&lt;/font&gt;" style="rounded=0;whiteSpace=wrap;html=1;fontSize=13;" parent="144" vertex="1">
                    <mxGeometry x="190" y="160" width="120" height="60" as="geometry"/>
                </mxCell>
                <mxCell id="38" style="edgeStyle=none;html=1;entryX=0.25;entryY=0;entryDx=0;entryDy=0;fontSize=20;endArrow=0;endFill=1;" parent="144" source="5" target="4" edge="1">
                    <mxGeometry relative="1" as="geometry"/>
                </mxCell>
                <mxCell id="5" value="&lt;u&gt;user_id&lt;/u&gt;" style="ellipse;whiteSpace=wrap;html=1;fontSize=20;" parent="144" vertex="1">
                    <mxGeometry x="120" y="60" width="120" height="80" as="geometry"/>
                </mxCell>
                <mxCell id="39" style="edgeStyle=none;html=1;entryX=0;entryY=0.25;entryDx=0;entryDy=0;fontSize=20;endArrow=0&#10;;endFill=1;" parent="144" source="6" target="4" edge="1">
                    <mxGeometry relative="1" as="geometry"/>
                </mxCell>
                <mxCell id="6" value="user_type" style="ellipse;whiteSpace=wrap;html=1;fontSize=20;" parent="144" vertex="1">
                    <mxGeometry y="120" width="120" height="80" as="geometry"/>
                </mxCell>
                <mxCell id="40" style="edgeStyle=none;html=1;entryX=0;entryY=0.75;entryDx=0;entryDy=0;fontSize=20;endArrow=0;endFill=1;" parent="144" source="7" target="4" edge="1">
                    <mxGeometry relative="1" as="geometry"/>
                </mxCell>
                <mxCell id="7" value="profile_pic" style="ellipse;whiteSpace=wrap;html=1;fontSize=20;" parent="144" vertex="1">
                    <mxGeometry x="10" y="230" width="120" height="80" as="geometry"/>
                </mxCell>
                <mxCell id="41" style="edgeStyle=none;shape=connector;rounded=1;html=1;entryX=0.5;entryY=1;entryDx=0;entryDy=0;labelBackgroundColor=default;fontFamily=Helvetica;fontSize=20;fontColor=default;endArrow=0;endFill=1;strokeColor=default;" parent="144" source="8" target="4" edge="1">
                    <mxGeometry relative="1" as="geometry"/>
                </mxCell>
                <mxCell id="8" value="bio" style="ellipse;whiteSpace=wrap;html=1;fontSize=20;" parent="144" vertex="1">
                    <mxGeometry x="150" y="270" width="120" height="80" as="geometry"/>
                </mxCell>
                <mxCell id="9" value="name" style="ellipse;whiteSpace=wrap;html=1;fontSize=20;" parent="144" vertex="1">
                    <mxGeometry x="270" width="120" height="80" as="geometry"/>
                </mxCell>
                <mxCell id="31" value="" style="endArrow=none;html=1;fontSize=20;exitX=0.649;exitY=-0.014;exitDx=0;exitDy=0;entryX=0.5;entryY=1;entryDx=0;entryDy=0;exitPerimeter=0;" parent="144" source="4" target="9" edge="1">
                    <mxGeometry width="50" height="50" relative="1" as="geometry">
                        <mxPoint x="260" y="120" as="sourcePoint"/>
                        <mxPoint x="310" y="70" as="targetPoint"/>
                    </mxGeometry>
                </mxCell>
                <mxCell id="10" value="password" style="ellipse;whiteSpace=wrap;html=1;fontSize=20;" parent="144" vertex="1">
                    <mxGeometry x="300" y="310" width="120" height="80" as="geometry"/>
                </mxCell>
                <mxCell id="42" style="edgeStyle=none;shape=connector;rounded=1;html=1;entryX=0.75;entryY=1;entryDx=0;entryDy=0;labelBackgroundColor=default;fontFamily=Helvetica;fontSize=20;fontColor=default;endArrow=0;endFill=1;strokeColor=default;" parent="144" source="10" target="4" edge="1">
                    <mxGeometry relative="1" as="geometry"/>
                </mxCell>
                <mxCell id="147" value="" style="group" parent="1" vertex="1" connectable="0">
                    <mxGeometry x="920" y="640" width="410" height="350" as="geometry"/>
                </mxCell>
                <mxCell id="68" value="&lt;font style=&quot;font-size: 20px&quot;&gt;Comment&lt;/font&gt;" style="rounded=0;whiteSpace=wrap;html=1;fontSize=13;" parent="147" vertex="1">
                    <mxGeometry x="190" y="160" width="120" height="60" as="geometry"/>
                </mxCell>
                <mxCell id="69" style="edgeStyle=none;html=1;entryX=0.25;entryY=0;entryDx=0;entryDy=0;fontSize=20;endArrow=0;endFill=1;" parent="147" source="70" target="68" edge="1">
                    <mxGeometry relative="1" as="geometry"/>
                </mxCell>
                <mxCell id="70" value="&lt;u&gt;comment_id&lt;/u&gt;" style="ellipse;whiteSpace=wrap;html=1;fontSize=20;" parent="147" vertex="1">
                    <mxGeometry x="130" y="40" width="120" height="80" as="geometry"/>
                </mxCell>
                <mxCell id="71" style="edgeStyle=none;html=1;entryX=0;entryY=0.25;entryDx=0;entryDy=0;fontSize=20;endArrow=0&#10;;endFill=1;" parent="147" source="72" target="68" edge="1">
                    <mxGeometry relative="1" as="geometry"/>
                </mxCell>
                <mxCell id="72" value="date_added" style="ellipse;whiteSpace=wrap;html=1;fontSize=20;" parent="147" vertex="1">
                    <mxGeometry y="120" width="120" height="80" as="geometry"/>
                </mxCell>
                <mxCell id="73" style="edgeStyle=none;html=1;entryX=0;entryY=0.75;entryDx=0;entryDy=0;fontSize=20;endArrow=0;endFill=1;" parent="147" source="74" target="68" edge="1">
                    <mxGeometry relative="1" as="geometry"/>
                </mxCell>
                <mxCell id="74" value="body" style="ellipse;whiteSpace=wrap;html=1;fontSize=20;" parent="147" vertex="1">
                    <mxGeometry x="10" y="230" width="120" height="80" as="geometry"/>
                </mxCell>
                <mxCell id="75" style="edgeStyle=none;shape=connector;rounded=1;html=1;entryX=0.5;entryY=1;entryDx=0;entryDy=0;labelBackgroundColor=default;fontFamily=Helvetica;fontSize=20;fontColor=default;endArrow=0;endFill=1;strokeColor=default;" parent="147" source="76" target="68" edge="1">
                    <mxGeometry relative="1" as="geometry"/>
                </mxCell>
                <mxCell id="76" value="author" style="ellipse;whiteSpace=wrap;html=1;fontSize=20;" parent="147" vertex="1">
                    <mxGeometry x="150" y="270" width="120" height="80" as="geometry"/>
                </mxCell>
                <mxCell id="77" value="lesson_name" style="ellipse;whiteSpace=wrap;html=1;fontSize=20;" parent="147" vertex="1">
                    <mxGeometry x="270" width="130" height="80" as="geometry"/>
                </mxCell>
                <mxCell id="78" style="edgeStyle=none;shape=connector;rounded=1;html=1;entryX=0.75;entryY=1;entryDx=0;entryDy=0;labelBackgroundColor=default;fontFamily=Helvetica;fontSize=20;fontColor=default;endArrow=0;endFill=1;strokeColor=default;" parent="147" source="79" target="68" edge="1">
                    <mxGeometry relative="1" as="geometry"/>
                </mxCell>
                <mxCell id="79" value="comm_name" style="ellipse;whiteSpace=wrap;html=1;fontSize=20;" parent="147" vertex="1">
                    <mxGeometry x="290" y="270" width="120" height="80" as="geometry"/>
                </mxCell>
                <mxCell id="80" value="" style="endArrow=none;html=1;fontSize=20;exitX=0.649;exitY=-0.014;exitDx=0;exitDy=0;entryX=0.5;entryY=1;entryDx=0;entryDy=0;exitPerimeter=0;" parent="147" source="68" target="77" edge="1">
                    <mxGeometry width="50" height="50" relative="1" as="geometry">
                        <mxPoint x="260" y="120" as="sourcePoint"/>
                        <mxPoint x="310" y="70" as="targetPoint"/>
                    </mxGeometry>
                </mxCell>
                <mxCell id="149" value="" style="group" parent="1" vertex="1" connectable="0">
                    <mxGeometry x="1750" y="710" width="420" height="320" as="geometry"/>
                </mxCell>
                <mxCell id="81" value="&lt;font style=&quot;font-size: 20px&quot;&gt;Reply&lt;/font&gt;" style="rounded=0;whiteSpace=wrap;html=1;fontSize=13;" parent="149" vertex="1">
                    <mxGeometry x="70" y="170" width="120" height="60" as="geometry"/>
                </mxCell>
                <mxCell id="82" style="edgeStyle=none;html=1;entryX=0.25;entryY=0;entryDx=0;entryDy=0;fontSize=20;endArrow=0;endFill=1;" parent="149" source="83" target="81" edge="1">
                    <mxGeometry relative="1" as="geometry"/>
                </mxCell>
                <mxCell id="83" value="&lt;u&gt;id&lt;/u&gt;" style="ellipse;whiteSpace=wrap;html=1;fontSize=20;" parent="149" vertex="1">
                    <mxGeometry y="70" width="120" height="80" as="geometry"/>
                </mxCell>
                <mxCell id="84" style="edgeStyle=none;html=1;entryX=1;entryY=1;entryDx=0;entryDy=0;fontSize=20;endArrow=0&#10;;endFill=1;" parent="149" source="85" target="81" edge="1">
                    <mxGeometry relative="1" as="geometry"/>
                </mxCell>
                <mxCell id="85" value="date_added" style="ellipse;whiteSpace=wrap;html=1;fontSize=20;" parent="149" vertex="1">
                    <mxGeometry x="270" y="240" width="120" height="80" as="geometry"/>
                </mxCell>
                <mxCell id="88" style="edgeStyle=none;shape=connector;rounded=1;html=1;entryX=1;entryY=0.5;entryDx=0;entryDy=0;labelBackgroundColor=default;fontFamily=Helvetica;fontSize=20;fontColor=default;endArrow=0;endFill=1;strokeColor=default;" parent="149" source="89" target="81" edge="1">
                    <mxGeometry relative="1" as="geometry"/>
                </mxCell>
                <mxCell id="89" value="author" style="ellipse;whiteSpace=wrap;html=1;fontSize=20;dashed=1;" parent="149" vertex="1">
                    <mxGeometry x="300" y="140" width="120" height="80" as="geometry"/>
                </mxCell>
                <mxCell id="90" value="comm_name" style="ellipse;whiteSpace=dotted;html=1;fontSize=20;dashed=1;" parent="149" vertex="1">
                    <mxGeometry x="110" width="130" height="80" as="geometry"/>
                </mxCell>
                <mxCell id="91" style="edgeStyle=none;shape=connector;rounded=1;html=1;entryX=1;entryY=0;entryDx=0;entryDy=0;labelBackgroundColor=default;fontFamily=Helvetica;fontSize=20;fontColor=default;endArrow=0;endFill=1;strokeColor=default;" parent="149" source="92" target="81" edge="1">
                    <mxGeometry relative="1" as="geometry"/>
                </mxCell>
                <mxCell id="92" value="reply_body" style="ellipse;whiteSpace=wrap;html=1;fontSize=20;" parent="149" vertex="1">
                    <mxGeometry x="240" y="30" width="120" height="80" as="geometry"/>
                </mxCell>
                <mxCell id="93" value="" style="endArrow=none;html=1;fontSize=20;exitX=0.649;exitY=-0.014;exitDx=0;exitDy=0;entryX=0.5;entryY=1;entryDx=0;entryDy=0;exitPerimeter=0;" parent="149" source="81" target="90" edge="1">
                    <mxGeometry width="50" height="50" relative="1" as="geometry">
                        <mxPoint x="140" y="130" as="sourcePoint"/>
                        <mxPoint x="190" y="80" as="targetPoint"/>
                    </mxGeometry>
                </mxCell>
                <mxCell id="157" style="edgeStyle=none;rounded=0;html=1;entryX=0;entryY=0;entryDx=0;entryDy=0;fontSize=25;startArrow=none;" parent="1" source="158" target="68" edge="1">
                    <mxGeometry relative="1" as="geometry"/>
                </mxCell>
                <mxCell id="158" value="adds" style="rhombus;whiteSpace=wrap;html=1;fontSize=25;" parent="1" vertex="1">
                    <mxGeometry x="640" y="440" width="220" height="220" as="geometry"/>
                </mxCell>
                <mxCell id="159" value="" style="edgeStyle=none;rounded=0;html=1;entryX=0;entryY=0;entryDx=0;entryDy=0;fontSize=25;endArrow=none;" parent="1" source="4" target="158" edge="1">
                    <mxGeometry relative="1" as="geometry">
                        <mxPoint x="293.7288135593217" y="210" as="sourcePoint"/>
                        <mxPoint x="1110" y="770" as="targetPoint"/>
                    </mxGeometry>
                </mxCell>
                <mxCell id="160" style="edgeStyle=none;rounded=0;html=1;entryX=0;entryY=0.5;entryDx=0;entryDy=0;fontSize=25;startArrow=none;" parent="1" source="161" target="81" edge="1">
                    <mxGeometry relative="1" as="geometry"/>
                </mxCell>
                <mxCell id="161" value="has" style="rhombus;whiteSpace=wrap;html=1;fontSize=25;" parent="1" vertex="1">
                    <mxGeometry x="1470" y="830" width="170" height="220" as="geometry"/>
                </mxCell>
                <mxCell id="162" value="" style="edgeStyle=none;rounded=0;html=1;entryX=0;entryY=0.5;entryDx=0;entryDy=0;fontSize=25;endArrow=none;" parent="1" source="68" target="161" edge="1">
                    <mxGeometry relative="1" as="geometry">
                        <mxPoint x="1230" y="812.3529411764707" as="sourcePoint"/>
                        <mxPoint x="1850" y="940" as="targetPoint"/>
                    </mxGeometry>
                </mxCell>
                <mxCell id="215" value="" style="group" parent="1" vertex="1" connectable="0">
                    <mxGeometry x="1475" y="120" width="490" height="160" as="geometry"/>
                </mxCell>
                <mxCell id="216" value="&lt;font style=&quot;font-size: 20px&quot;&gt;Contact&lt;/font&gt;" style="rounded=0;whiteSpace=wrap;html=1;fontSize=13;" parent="215" vertex="1">
                    <mxGeometry x="190" y="100" width="120" height="60" as="geometry"/>
                </mxCell>
                <mxCell id="217" style="edgeStyle=none;shape=connector;rounded=1;html=1;entryX=0.25;entryY=0;entryDx=0;entryDy=0;labelBackgroundColor=default;fontFamily=Helvetica;fontSize=20;fontColor=default;endArrow=0;endFill=1;strokeColor=default;" parent="215" source="218" target="216" edge="1">
                    <mxGeometry relative="1" as="geometry"/>
                </mxCell>
                <mxCell id="218" value="name" style="ellipse;whiteSpace=wrap;html=1;fontSize=20;" parent="215" vertex="1">
                    <mxGeometry x="120" width="120" height="80" as="geometry"/>
                </mxCell>
                <mxCell id="221" style="edgeStyle=none;shape=connector;rounded=1;html=1;entryX=0.5;entryY=0;entryDx=0;entryDy=0;labelBackgroundColor=default;fontFamily=Helvetica;fontSize=20;fontColor=default;endArrow=0;endFill=1;strokeColor=default;" parent="215" source="222" target="216" edge="1">
                    <mxGeometry relative="1" as="geometry"/>
                </mxCell>
                <mxCell id="222" value="email" style="ellipse;whiteSpace=wrap;html=1;fontSize=20;" parent="215" vertex="1">
                    <mxGeometry x="260" width="120" height="80" as="geometry"/>
                </mxCell>
                <mxCell id="223" style="edgeStyle=none;shape=connector;rounded=1;html=1;entryX=1;entryY=0.5;entryDx=0;entryDy=0;labelBackgroundColor=default;fontFamily=Helvetica;fontSize=20;fontColor=default;endArrow=0;endFill=1;strokeColor=default;" parent="215" source="224" target="216" edge="1">
                    <mxGeometry relative="1" as="geometry"/>
                </mxCell>
                <mxCell id="224" value="feedback" style="ellipse;whiteSpace=wrap;html=1;fontSize=20;" parent="215" vertex="1">
                    <mxGeometry x="370" y="70" width="120" height="80" as="geometry"/>
                </mxCell>
                <mxCell id="225" value="" style="group" parent="1" vertex="1" connectable="0">
                    <mxGeometry x="190" y="1387.91" width="360" height="350" as="geometry"/>
                </mxCell>
                <mxCell id="226" value="&lt;font style=&quot;font-size: 20px&quot;&gt;Standard&lt;/font&gt;" style="rounded=0;whiteSpace=wrap;html=1;fontSize=13;" parent="225" vertex="1">
                    <mxGeometry x="70" y="170" width="120" height="60" as="geometry"/>
                </mxCell>
                <mxCell id="230" style="edgeStyle=none;shape=connector;rounded=1;html=1;entryX=1;entryY=0;entryDx=0;entryDy=0;labelBackgroundColor=default;fontFamily=Helvetica;fontSize=20;fontColor=default;endArrow=0;endFill=1;strokeColor=default;" parent="225" source="231" target="226" edge="1">
                    <mxGeometry relative="1" as="geometry"/>
                </mxCell>
                <mxCell id="231" value="slug" style="ellipse;whiteSpace=wrap;html=1;fontSize=20;" parent="225" vertex="1">
                    <mxGeometry x="240" y="30" width="120" height="80" as="geometry"/>
                </mxCell>
                <mxCell id="233" style="edgeStyle=none;html=1;entryX=0.5;entryY=1;entryDx=0;entryDy=0;fontSize=20;endArrow=0&#10;;endFill=1;" parent="225" source="234" target="226" edge="1">
                    <mxGeometry relative="1" as="geometry">
                        <mxPoint x="40" y="260" as="targetPoint"/>
                    </mxGeometry>
                </mxCell>
                <mxCell id="234" value="description" style="ellipse;whiteSpace=wrap;html=1;fontSize=20;" parent="225" vertex="1">
                    <mxGeometry x="120" y="270" width="120" height="80" as="geometry"/>
                </mxCell>
                <mxCell id="229" value="name" style="ellipse;whiteSpace=dotted;html=1;fontSize=20;" parent="225" vertex="1">
                    <mxGeometry x="-60" y="42.08999999999992" width="130" height="80" as="geometry"/>
                </mxCell>
                <mxCell id="232" value="" style="endArrow=none;html=1;fontSize=20;exitX=0;exitY=0;exitDx=0;exitDy=0;entryX=0.5;entryY=1;entryDx=0;entryDy=0;" parent="225" source="226" target="229" edge="1">
                    <mxGeometry width="50" height="50" relative="1" as="geometry">
                        <mxPoint x="130" y="232.08999999999992" as="sourcePoint"/>
                        <mxPoint x="180" y="182.08999999999992" as="targetPoint"/>
                    </mxGeometry>
                </mxCell>
                <mxCell id="404" value="1" style="text;html=1;strokeColor=none;fillColor=none;align=center;verticalAlign=middle;whiteSpace=wrap;rounded=0;fontSize=25;" vertex="1" parent="225">
                    <mxGeometry x="220" y="185" width="60" height="30" as="geometry"/>
                </mxCell>
                <mxCell id="235" value="" style="group" parent="1" vertex="1" connectable="0">
                    <mxGeometry x="915" y="1364.91" width="420" height="405" as="geometry"/>
                </mxCell>
                <mxCell id="236" value="&lt;font style=&quot;font-size: 20px&quot;&gt;Subject&lt;/font&gt;" style="rounded=0;whiteSpace=wrap;html=1;fontSize=13;" parent="235" vertex="1">
                    <mxGeometry x="70" y="170" width="120" height="60" as="geometry"/>
                </mxCell>
                <mxCell id="237" style="edgeStyle=none;html=1;entryX=0.25;entryY=0;entryDx=0;entryDy=0;fontSize=20;endArrow=0;endFill=1;" parent="235" source="238" target="236" edge="1">
                    <mxGeometry relative="1" as="geometry"/>
                </mxCell>
                <mxCell id="238" value="&lt;u&gt;subject_id&lt;/u&gt;" style="ellipse;whiteSpace=wrap;html=1;fontSize=20;" parent="235" vertex="1">
                    <mxGeometry y="70" width="120" height="80" as="geometry"/>
                </mxCell>
                <mxCell id="241" style="edgeStyle=none;shape=connector;rounded=1;html=1;entryX=1;entryY=0.5;entryDx=0;entryDy=0;labelBackgroundColor=default;fontFamily=Helvetica;fontSize=20;fontColor=default;endArrow=0;endFill=1;strokeColor=default;" parent="235" source="242" target="236" edge="1">
                    <mxGeometry relative="1" as="geometry"/>
                </mxCell>
                <mxCell id="242" value="standard" style="ellipse;whiteSpace=wrap;html=1;fontSize=20;dashed=1;" parent="235" vertex="1">
                    <mxGeometry x="310" y="245" width="120" height="80" as="geometry"/>
                </mxCell>
                <mxCell id="243" value="name" style="ellipse;whiteSpace=dotted;html=1;fontSize=20;" parent="235" vertex="1">
                    <mxGeometry x="110" width="130" height="80" as="geometry"/>
                </mxCell>
                <mxCell id="244" style="edgeStyle=none;shape=connector;rounded=1;html=1;entryX=1;entryY=0;entryDx=0;entryDy=0;labelBackgroundColor=default;fontFamily=Helvetica;fontSize=20;fontColor=default;endArrow=0;endFill=1;strokeColor=default;" parent="235" source="245" target="236" edge="1">
                    <mxGeometry relative="1" as="geometry"/>
                </mxCell>
                <mxCell id="245" value="slug" style="ellipse;whiteSpace=wrap;html=1;fontSize=20;" parent="235" vertex="1">
                    <mxGeometry x="240" y="30" width="120" height="80" as="geometry"/>
                </mxCell>
                <mxCell id="246" value="" style="endArrow=none;html=1;fontSize=20;exitX=0.649;exitY=-0.014;exitDx=0;exitDy=0;entryX=0.5;entryY=1;entryDx=0;entryDy=0;exitPerimeter=0;" parent="235" source="236" target="243" edge="1">
                    <mxGeometry width="50" height="50" relative="1" as="geometry">
                        <mxPoint x="140" y="130" as="sourcePoint"/>
                        <mxPoint x="190" y="80" as="targetPoint"/>
                    </mxGeometry>
                </mxCell>
                <mxCell id="247" style="edgeStyle=none;html=1;entryX=0.5;entryY=1;entryDx=0;entryDy=0;fontSize=20;endArrow=0&#10;;endFill=1;" parent="235" source="248" target="236" edge="1">
                    <mxGeometry relative="1" as="geometry">
                        <mxPoint x="40" y="260" as="targetPoint"/>
                    </mxGeometry>
                </mxCell>
                <mxCell id="248" value="description" style="ellipse;whiteSpace=wrap;html=1;fontSize=20;" parent="235" vertex="1">
                    <mxGeometry x="-10" y="290" width="120" height="80" as="geometry"/>
                </mxCell>
                <mxCell id="240" value="image" style="ellipse;whiteSpace=wrap;html=1;fontSize=20;" parent="235" vertex="1">
                    <mxGeometry x="110" y="325" width="120" height="80" as="geometry"/>
                </mxCell>
                <mxCell id="239" style="edgeStyle=none;html=1;fontSize=20;endArrow=0&#10;;endFill=1;" parent="235" source="240" target="236" edge="1">
                    <mxGeometry relative="1" as="geometry"/>
                </mxCell>
                <mxCell id="327" value="" style="group" parent="1" vertex="1" connectable="0">
                    <mxGeometry x="2490" y="1350" width="530" height="270" as="geometry"/>
                </mxCell>
                <mxCell id="328" value="&lt;font style=&quot;font-size: 20px&quot;&gt;Assignment&lt;/font&gt;" style="rounded=0;whiteSpace=wrap;html=1;fontSize=13;" parent="327" vertex="1">
                    <mxGeometry x="220" y="100" width="120" height="60" as="geometry"/>
                </mxCell>
                <mxCell id="329" style="edgeStyle=none;shape=connector;rounded=1;html=1;entryX=0.75;entryY=0;entryDx=0;entryDy=0;labelBackgroundColor=default;fontFamily=Helvetica;fontSize=20;fontColor=default;endArrow=0;endFill=1;strokeColor=default;" parent="327" source="330" target="328" edge="1">
                    <mxGeometry relative="1" as="geometry"/>
                </mxCell>
                <mxCell id="330" value="title" style="ellipse;whiteSpace=wrap;html=1;fontSize=20;" parent="327" vertex="1">
                    <mxGeometry x="420" y="-40" width="120" height="80" as="geometry"/>
                </mxCell>
                <mxCell id="331" style="edgeStyle=none;shape=connector;rounded=1;html=1;entryX=0;entryY=0.25;entryDx=0;entryDy=0;labelBackgroundColor=default;fontFamily=Helvetica;fontSize=20;fontColor=default;endArrow=0;endFill=1;strokeColor=default;" parent="327" source="332" target="328" edge="1">
                    <mxGeometry relative="1" as="geometry"/>
                </mxCell>
                <mxCell id="332" value="&lt;u&gt;assignment_id&lt;/u&gt;" style="ellipse;whiteSpace=wrap;html=1;fontSize=20;" parent="327" vertex="1">
                    <mxGeometry y="60" width="150" height="80" as="geometry"/>
                </mxCell>
                <mxCell id="333" style="edgeStyle=none;shape=connector;rounded=1;html=1;entryX=1;entryY=0.5;entryDx=0;entryDy=0;labelBackgroundColor=default;fontFamily=Helvetica;fontSize=20;fontColor=default;endArrow=0;endFill=1;strokeColor=default;" parent="327" source="334" target="328" edge="1">
                    <mxGeometry relative="1" as="geometry"/>
                </mxCell>
                <mxCell id="334" value="description" style="ellipse;whiteSpace=wrap;html=1;fontSize=20;" parent="327" vertex="1">
                    <mxGeometry x="440" y="60" width="120" height="80" as="geometry"/>
                </mxCell>
                <mxCell id="337" value="&lt;font style=&quot;font-size: 20px&quot;&gt;file&lt;/font&gt;" style="ellipse;whiteSpace=wrap;html=1;" parent="327" vertex="1">
                    <mxGeometry x="410" y="180" width="120" height="80" as="geometry"/>
                </mxCell>
                <mxCell id="338" value="&lt;font style=&quot;font-size: 20px&quot;&gt;lesson&lt;/font&gt;" style="ellipse;whiteSpace=wrap;html=1;dashed=1;" parent="327" vertex="1">
                    <mxGeometry x="240" y="190" width="120" height="80" as="geometry"/>
                </mxCell>
                <mxCell id="339" style="edgeStyle=none;shape=connector;rounded=1;html=1;entryX=0.5;entryY=1;entryDx=0;entryDy=0;labelBackgroundColor=default;fontFamily=Helvetica;fontSize=20;fontColor=default;endArrow=0;endFill=1;strokeColor=default;exitX=0.5;exitY=0;exitDx=0;exitDy=0;" parent="327" source="338" target="328" edge="1">
                    <mxGeometry relative="1" as="geometry">
                        <mxPoint x="149.82391696074137" y="130.117767332644" as="sourcePoint"/>
                        <mxPoint x="230" y="155" as="targetPoint"/>
                    </mxGeometry>
                </mxCell>
                <mxCell id="340" style="edgeStyle=none;shape=connector;rounded=1;html=1;entryX=1;entryY=1;entryDx=0;entryDy=0;labelBackgroundColor=default;fontFamily=Helvetica;fontSize=20;fontColor=default;endArrow=0;endFill=1;strokeColor=default;exitX=0.5;exitY=0;exitDx=0;exitDy=0;" parent="327" source="337" target="328" edge="1">
                    <mxGeometry relative="1" as="geometry">
                        <mxPoint x="380" y="200" as="sourcePoint"/>
                        <mxPoint x="360" y="170" as="targetPoint"/>
                        <Array as="points"/>
                    </mxGeometry>
                </mxCell>
                <mxCell id="375" style="edgeStyle=none;rounded=0;html=1;entryX=0;entryY=1;entryDx=0;entryDy=0;fontSize=25;startArrow=none;" parent="1" source="376" target="328" edge="1">
                    <mxGeometry relative="1" as="geometry">
                        <Array as="points">
                            <mxPoint x="2480" y="1730"/>
                        </Array>
                    </mxGeometry>
                </mxCell>
                <mxCell id="341" value="&lt;font style=&quot;font-size: 20px&quot;&gt;Lesson&lt;/font&gt;" style="rounded=0;whiteSpace=wrap;html=1;fontSize=13;rotation=-60;" parent="1" vertex="1">
                    <mxGeometry x="1953.325591465635" y="1708.905437626279" width="120" height="60" as="geometry"/>
                </mxCell>
                <mxCell id="342" style="edgeStyle=none;html=1;entryX=0.25;entryY=0;entryDx=0;entryDy=0;fontSize=20;endArrow=0;endFill=1;" parent="1" source="343" target="341" edge="1">
                    <mxGeometry relative="1" as="geometry"/>
                </mxCell>
                <mxCell id="343" value="&lt;u&gt;ppt&lt;/u&gt;" style="ellipse;whiteSpace=wrap;html=1;fontSize=20;rotation=-60;" parent="1" vertex="1">
                    <mxGeometry x="1840.325591465635" y="1714.905437626279" width="120" height="80" as="geometry"/>
                </mxCell>
                <mxCell id="344" style="edgeStyle=none;html=1;entryX=0;entryY=0.25;entryDx=0;entryDy=0;fontSize=20;endArrow=0&#10;;endFill=1;" parent="1" source="345" target="341" edge="1">
                    <mxGeometry relative="1" as="geometry"/>
                </mxCell>
                <mxCell id="345" value="video" style="ellipse;whiteSpace=wrap;html=1;fontSize=20;rotation=-60;" parent="1" vertex="1">
                    <mxGeometry x="1832.325591465635" y="1848.905437626279" width="120" height="80" as="geometry"/>
                </mxCell>
                <mxCell id="346" style="edgeStyle=none;html=1;entryX=0;entryY=0.75;entryDx=0;entryDy=0;fontSize=20;endArrow=0;endFill=1;" parent="1" source="347" target="341" edge="1">
                    <mxGeometry relative="1" as="geometry"/>
                </mxCell>
                <mxCell id="347" value="slug" style="ellipse;whiteSpace=wrap;html=1;fontSize=20;rotation=-60;" parent="1" vertex="1">
                    <mxGeometry x="1932.325591465635" y="1894.905437626279" width="120" height="80" as="geometry"/>
                </mxCell>
                <mxCell id="349" value="notes" style="ellipse;whiteSpace=wrap;html=1;fontSize=20;rotation=-60;" parent="1" vertex="1">
                    <mxGeometry x="1863.325591465635" y="1554.905437626279" width="120" height="80" as="geometry"/>
                </mxCell>
                <mxCell id="350" style="edgeStyle=none;shape=connector;rounded=1;html=1;entryX=0;entryY=1;entryDx=0;entryDy=0;labelBackgroundColor=default;fontFamily=Helvetica;fontSize=20;fontColor=default;endArrow=0;endFill=1;strokeColor=default;" parent="1" source="351" target="341" edge="1">
                    <mxGeometry relative="1" as="geometry"/>
                </mxCell>
                <mxCell id="351" value="subject" style="ellipse;whiteSpace=wrap;html=1;fontSize=20;rotation=-60;" parent="1" vertex="1">
                    <mxGeometry x="2027.3255914656347" y="1949.995437626279" width="120" height="80" as="geometry"/>
                </mxCell>
                <mxCell id="352" value="" style="endArrow=none;html=1;fontSize=20;exitX=0.649;exitY=-0.014;exitDx=0;exitDy=0;entryX=0.5;entryY=1;entryDx=0;entryDy=0;exitPerimeter=0;" parent="1" source="341" target="349" edge="1">
                    <mxGeometry width="50" height="50" relative="1" as="geometry">
                        <mxPoint x="528.325591465635" y="421.3554376262791" as="sourcePoint"/>
                        <mxPoint x="509.32559146563494" y="353.3554376262791" as="targetPoint"/>
                    </mxGeometry>
                </mxCell>
                <mxCell id="353" style="edgeStyle=none;shape=connector;rounded=1;html=1;entryX=1;entryY=0.5;entryDx=0;entryDy=0;labelBackgroundColor=default;fontFamily=Helvetica;fontSize=20;fontColor=default;endArrow=0;endFill=1;strokeColor=default;" parent="1" source="354" target="341" edge="1">
                    <mxGeometry relative="1" as="geometry"/>
                </mxCell>
                <mxCell id="354" value="lesson_id" style="ellipse;whiteSpace=wrap;html=1;fontFamily=Helvetica;fontSize=20;fontColor=default;rotation=-60;" parent="1" vertex="1">
                    <mxGeometry x="2021.325591465635" y="1541.905437626279" width="120" height="80" as="geometry"/>
                </mxCell>
                <mxCell id="355" style="edgeStyle=none;shape=connector;rounded=1;html=1;entryX=1;entryY=0.75;entryDx=0;entryDy=0;labelBackgroundColor=default;fontFamily=Helvetica;fontSize=20;fontColor=default;endArrow=0;endFill=1;strokeColor=default;" parent="1" source="356" target="341" edge="1">
                    <mxGeometry relative="1" as="geometry"/>
                </mxCell>
                <mxCell id="356" value="created_by" style="ellipse;whiteSpace=wrap;html=1;fontFamily=Helvetica;fontSize=20;fontColor=default;rotation=-60;" parent="1" vertex="1">
                    <mxGeometry x="2147.3255914656347" y="1522.905437626279" width="120" height="80" as="geometry"/>
                </mxCell>
                <mxCell id="357" style="edgeStyle=none;shape=connector;rounded=1;html=1;entryX=1;entryY=1;entryDx=0;entryDy=0;labelBackgroundColor=default;fontFamily=Helvetica;fontSize=20;fontColor=default;endArrow=0;endFill=1;strokeColor=default;" parent="1" source="358" target="341" edge="1">
                    <mxGeometry relative="1" as="geometry"/>
                </mxCell>
                <mxCell id="358" value="standard" style="ellipse;whiteSpace=wrap;html=1;fontFamily=Helvetica;fontSize=20;fontColor=default;rotation=-60;" parent="1" vertex="1">
                    <mxGeometry x="2224.3255914656347" y="1589.905437626279" width="120" height="80" as="geometry"/>
                </mxCell>
                <mxCell id="359" style="edgeStyle=none;shape=connector;rounded=1;html=1;entryX=0;entryY=1;entryDx=0;entryDy=0;labelBackgroundColor=default;fontFamily=Helvetica;fontSize=20;fontColor=default;endArrow=0;endFill=1;strokeColor=default;" parent="1" source="360" target="341" edge="1">
                    <mxGeometry relative="1" as="geometry"/>
                </mxCell>
                <mxCell id="360" value="created_at" style="ellipse;whiteSpace=wrap;html=1;fontFamily=Helvetica;fontSize=20;fontColor=default;rotation=-60;" parent="1" vertex="1">
                    <mxGeometry x="2149.995591465635" y="1919.995437626279" width="120" height="80" as="geometry"/>
                </mxCell>
                <mxCell id="361" style="edgeStyle=none;rounded=0;html=1;entryX=0.5;entryY=0;entryDx=0;entryDy=0;fontSize=20;startArrow=none;" parent="1" source="362" target="341" edge="1">
                    <mxGeometry relative="1" as="geometry"/>
                </mxCell>
                <mxCell id="362" value="&lt;font style=&quot;font-size: 25px&quot;&gt;has&lt;/font&gt;" style="rhombus;whiteSpace=wrap;html=1;fontSize=20;rotation=15;" parent="1" vertex="1">
                    <mxGeometry x="1529.325591465635" y="1485.905437626279" width="223.72" height="178.79" as="geometry"/>
                </mxCell>
                <mxCell id="365" style="edgeStyle=none;rounded=0;html=1;entryX=0;entryY=0.5;entryDx=0;entryDy=0;fontSize=25;" parent="1" source="236" target="362" edge="1">
                    <mxGeometry relative="1" as="geometry"/>
                </mxCell>
                <mxCell id="366" style="edgeStyle=none;rounded=0;html=1;entryX=0;entryY=0.5;entryDx=0;entryDy=0;fontSize=25;startArrow=none;" parent="1" source="367" target="236" edge="1">
                    <mxGeometry relative="1" as="geometry"/>
                </mxCell>
                <mxCell id="367" value="has" style="rhombus;whiteSpace=wrap;html=1;fontSize=25;" parent="1" vertex="1">
                    <mxGeometry x="490" y="1535" width="200" height="150" as="geometry"/>
                </mxCell>
                <mxCell id="368" value="" style="edgeStyle=none;rounded=0;html=1;entryX=0;entryY=0.5;entryDx=0;entryDy=0;fontSize=25;endArrow=none;" parent="1" source="226" target="367" edge="1">
                    <mxGeometry relative="1" as="geometry">
                        <mxPoint x="370" y="1688.363636363636" as="sourcePoint"/>
                        <mxPoint x="860" y="1675" as="targetPoint"/>
                    </mxGeometry>
                </mxCell>
                <mxCell id="228" value="&lt;u&gt;standard_id&lt;/u&gt;" style="ellipse;whiteSpace=wrap;html=1;fontSize=20;" parent="1" vertex="1">
                    <mxGeometry x="20" y="1589.91" width="120" height="80" as="geometry"/>
                </mxCell>
                <mxCell id="227" style="edgeStyle=none;html=1;entryX=0;entryY=0.5;entryDx=0;entryDy=0;fontSize=20;endArrow=0;endFill=1;" parent="1" source="228" target="226" edge="1">
                    <mxGeometry relative="1" as="geometry"/>
                </mxCell>
                <mxCell id="369" style="edgeStyle=none;rounded=0;html=1;fontSize=25;entryX=0.75;entryY=0;entryDx=0;entryDy=0;startArrow=none;" parent="1" source="370" target="226" edge="1">
                    <mxGeometry relative="1" as="geometry">
                        <mxPoint x="340" y="1531.111083984375" as="targetPoint"/>
                    </mxGeometry>
                </mxCell>
                <mxCell id="370" value="reads" style="rhombus;whiteSpace=wrap;html=1;fontSize=25;" parent="1" vertex="1">
                    <mxGeometry x="270" y="920" width="180" height="180" as="geometry"/>
                </mxCell>
                <mxCell id="371" value="" style="edgeStyle=none;rounded=0;html=1;fontSize=25;entryX=0.5;entryY=0;entryDx=0;entryDy=0;endArrow=none;" parent="1" source="4" target="370" edge="1">
                    <mxGeometry relative="1" as="geometry">
                        <mxPoint x="340" y="1660" as="targetPoint"/>
                        <mxPoint x="271.4432989690722" y="235" as="sourcePoint"/>
                    </mxGeometry>
                </mxCell>
                <mxCell id="372" style="edgeStyle=none;rounded=0;html=1;entryX=0;entryY=0.5;entryDx=0;entryDy=0;fontSize=25;startArrow=none;" parent="1" source="373" target="216" edge="1">
                    <mxGeometry relative="1" as="geometry"/>
                </mxCell>
                <mxCell id="373" value="views" style="rhombus;whiteSpace=wrap;html=1;fontSize=25;" parent="1" vertex="1">
                    <mxGeometry x="990" y="190" width="180" height="150" as="geometry"/>
                </mxCell>
                <mxCell id="374" value="" style="edgeStyle=none;rounded=0;html=1;entryX=0;entryY=0.5;entryDx=0;entryDy=0;fontSize=25;endArrow=none;" parent="1" source="4" target="373" edge="1">
                    <mxGeometry relative="1" as="geometry">
                        <mxPoint x="330" y="207.42236024844715" as="sourcePoint"/>
                        <mxPoint x="1880" y="270" as="targetPoint"/>
                    </mxGeometry>
                </mxCell>
                <mxCell id="376" value="has" style="rhombus;whiteSpace=wrap;html=1;fontSize=25;" parent="1" vertex="1">
                    <mxGeometry x="2370" y="1685" width="180" height="145" as="geometry"/>
                </mxCell>
                <mxCell id="377" value="" style="edgeStyle=none;rounded=0;html=1;entryX=0;entryY=1;entryDx=0;entryDy=0;fontSize=25;endArrow=none;" parent="1" source="341" target="376" edge="1">
                    <mxGeometry relative="1" as="geometry">
                        <mxPoint x="2048.352514604696" y="1738.2370271166155" as="sourcePoint"/>
                        <mxPoint x="2665" y="1500" as="targetPoint"/>
                        <Array as="points"/>
                    </mxGeometry>
                </mxCell>
                <mxCell id="378" value="m" style="text;html=1;strokeColor=none;fillColor=none;align=center;verticalAlign=middle;whiteSpace=wrap;rounded=0;fontSize=25;" parent="1" vertex="1">
                    <mxGeometry x="710" y="250" width="60" height="30" as="geometry"/>
                </mxCell>
                <mxCell id="379" value="m" style="text;html=1;strokeColor=none;fillColor=none;align=center;verticalAlign=middle;whiteSpace=wrap;rounded=0;fontSize=25;" parent="1" vertex="1">
                    <mxGeometry x="1340" y="210" width="60" height="30" as="geometry"/>
                </mxCell>
                <mxCell id="380" value="" style="group" parent="1" vertex="1" connectable="0">
                    <mxGeometry x="2344.33" y="870" width="530" height="365" as="geometry"/>
                </mxCell>
                <mxCell id="381" value="&lt;font style=&quot;font-size: 20px&quot;&gt;Submission&lt;/font&gt;" style="rounded=0;whiteSpace=wrap;html=1;fontSize=13;" parent="380" vertex="1">
                    <mxGeometry x="220" y="107.5" width="120" height="60" as="geometry"/>
                </mxCell>
                <mxCell id="382" style="edgeStyle=none;shape=connector;rounded=1;html=1;entryX=0.25;entryY=0;entryDx=0;entryDy=0;labelBackgroundColor=default;fontFamily=Helvetica;fontSize=20;fontColor=default;endArrow=0;endFill=1;strokeColor=default;" parent="380" source="383" target="381" edge="1">
                    <mxGeometry relative="1" as="geometry"/>
                </mxCell>
                <mxCell id="383" value="title" style="ellipse;whiteSpace=wrap;html=1;fontSize=20;" parent="380" vertex="1">
                    <mxGeometry x="150" width="120" height="80" as="geometry"/>
                </mxCell>
                <mxCell id="384" style="edgeStyle=none;shape=connector;rounded=1;html=1;entryX=0;entryY=0.25;entryDx=0;entryDy=0;labelBackgroundColor=default;fontFamily=Helvetica;fontSize=20;fontColor=default;endArrow=0;endFill=1;strokeColor=default;" parent="380" source="385" target="381" edge="1">
                    <mxGeometry relative="1" as="geometry"/>
                </mxCell>
                <mxCell id="385" value="&lt;u&gt;assignment_id&lt;/u&gt;" style="ellipse;whiteSpace=wrap;html=1;fontSize=20;dashed=1;" parent="380" vertex="1">
                    <mxGeometry y="60" width="150" height="80" as="geometry"/>
                </mxCell>
                <mxCell id="386" style="edgeStyle=none;shape=connector;rounded=1;html=1;entryX=0.5;entryY=0;entryDx=0;entryDy=0;labelBackgroundColor=default;fontFamily=Helvetica;fontSize=20;fontColor=default;endArrow=0;endFill=1;strokeColor=default;" parent="380" source="387" target="381" edge="1">
                    <mxGeometry relative="1" as="geometry"/>
                </mxCell>
                <mxCell id="387" value="description" style="ellipse;whiteSpace=wrap;html=1;fontSize=20;" parent="380" vertex="1">
                    <mxGeometry x="290" width="120" height="80" as="geometry"/>
                </mxCell>
                <mxCell id="388" value="&lt;font style=&quot;font-size: 20px&quot;&gt;file&lt;/font&gt;" style="ellipse;whiteSpace=wrap;html=1;" parent="380" vertex="1">
                    <mxGeometry x="430" y="60" width="120" height="80" as="geometry"/>
                </mxCell>
                <mxCell id="389" value="&lt;font style=&quot;font-size: 20px&quot;&gt;user&lt;/font&gt;" style="ellipse;whiteSpace=wrap;html=1;dashed=1;" parent="380" vertex="1">
                    <mxGeometry y="180" width="120" height="80" as="geometry"/>
                </mxCell>
                <mxCell id="390" style="edgeStyle=none;shape=connector;rounded=1;html=1;entryX=0;entryY=0.5;entryDx=0;entryDy=0;labelBackgroundColor=default;fontFamily=Helvetica;fontSize=20;fontColor=default;endArrow=0;endFill=1;strokeColor=default;exitX=0.5;exitY=0;exitDx=0;exitDy=0;" parent="380" source="389" target="381" edge="1">
                    <mxGeometry relative="1" as="geometry">
                        <mxPoint x="149.82391696074137" y="130.117767332644" as="sourcePoint"/>
                        <mxPoint x="230" y="155" as="targetPoint"/>
                    </mxGeometry>
                </mxCell>
                <mxCell id="391" style="edgeStyle=none;shape=connector;rounded=1;html=1;entryX=1;entryY=0.5;entryDx=0;entryDy=0;labelBackgroundColor=default;fontFamily=Helvetica;fontSize=20;fontColor=default;endArrow=0;endFill=1;strokeColor=default;exitX=0;exitY=0.5;exitDx=0;exitDy=0;" parent="380" source="388" target="381" edge="1">
                    <mxGeometry relative="1" as="geometry">
                        <mxPoint x="380" y="200" as="sourcePoint"/>
                        <mxPoint x="360" y="170" as="targetPoint"/>
                        <Array as="points"/>
                    </mxGeometry>
                </mxCell>
                <mxCell id="415" style="edgeStyle=none;html=1;exitX=0.5;exitY=0;exitDx=0;exitDy=0;entryX=0.5;entryY=1;entryDx=0;entryDy=0;" edge="1" parent="380" source="393" target="381">
                    <mxGeometry relative="1" as="geometry"/>
                </mxCell>
                <mxCell id="393" value="has" style="rhombus;whiteSpace=wrap;html=1;fontSize=25;" parent="380" vertex="1">
                    <mxGeometry x="295.67" y="290" width="120" height="130" as="geometry"/>
                </mxCell>
                <mxCell id="220" value="&lt;u&gt;contact_id&lt;/u&gt;" style="ellipse;whiteSpace=wrap;html=1;fontSize=20;" parent="1" vertex="1">
                    <mxGeometry x="1790" y="290" width="120" height="80" as="geometry"/>
                </mxCell>
                <mxCell id="219" style="edgeStyle=none;shape=connector;rounded=1;html=1;entryX=0.5;entryY=1;entryDx=0;entryDy=0;labelBackgroundColor=default;fontFamily=Helvetica;fontSize=20;fontColor=default;endArrow=0;endFill=1;strokeColor=default;" parent="1" source="220" target="216" edge="1">
                    <mxGeometry relative="1" as="geometry"/>
                </mxCell>
                <mxCell id="397" value="m" style="text;html=1;strokeColor=none;fillColor=none;align=center;verticalAlign=middle;whiteSpace=wrap;rounded=0;fontSize=25;" vertex="1" parent="1">
                    <mxGeometry x="590" y="440" width="60" height="30" as="geometry"/>
                </mxCell>
                <mxCell id="398" value="m" style="text;html=1;strokeColor=none;fillColor=none;align=center;verticalAlign=middle;whiteSpace=wrap;rounded=0;fontSize=25;" vertex="1" parent="1">
                    <mxGeometry x="940" y="660" width="60" height="30" as="geometry"/>
                </mxCell>
                <mxCell id="399" value="1" style="text;html=1;strokeColor=none;fillColor=none;align=center;verticalAlign=middle;whiteSpace=wrap;rounded=0;fontSize=25;" vertex="1" parent="1">
                    <mxGeometry x="1370" y="880" width="60" height="30" as="geometry"/>
                </mxCell>
                <mxCell id="401" value="m" style="text;html=1;strokeColor=none;fillColor=none;align=center;verticalAlign=middle;whiteSpace=wrap;rounded=0;fontSize=25;" vertex="1" parent="1">
                    <mxGeometry x="1690" y="890" width="60" height="30" as="geometry"/>
                </mxCell>
                <mxCell id="402" value="m" style="text;html=1;strokeColor=none;fillColor=none;align=center;verticalAlign=middle;whiteSpace=wrap;rounded=0;fontSize=25;" vertex="1" parent="1">
                    <mxGeometry x="350" y="810" width="60" height="30" as="geometry"/>
                </mxCell>
                <mxCell id="403" value="m" style="text;html=1;strokeColor=none;fillColor=none;align=center;verticalAlign=middle;whiteSpace=wrap;rounded=0;fontSize=25;" vertex="1" parent="1">
                    <mxGeometry x="390" y="1290" width="60" height="30" as="geometry"/>
                </mxCell>
                <mxCell id="406" value="m" style="text;html=1;strokeColor=none;fillColor=none;align=center;verticalAlign=middle;whiteSpace=wrap;rounded=0;fontSize=25;" vertex="1" parent="1">
                    <mxGeometry x="800" y="1560" width="60" height="30" as="geometry"/>
                </mxCell>
                <mxCell id="407" value="1" style="text;html=1;strokeColor=none;fillColor=none;align=center;verticalAlign=middle;whiteSpace=wrap;rounded=0;fontSize=25;" vertex="1" parent="1">
                    <mxGeometry x="1400" y="1520" width="60" height="30" as="geometry"/>
                </mxCell>
                <mxCell id="408" value="m" style="text;html=1;strokeColor=none;fillColor=none;align=center;verticalAlign=middle;whiteSpace=wrap;rounded=0;fontSize=25;" vertex="1" parent="1">
                    <mxGeometry x="1790" y="1602.91" width="60" height="30" as="geometry"/>
                </mxCell>
                <mxCell id="409" value="1" style="text;html=1;strokeColor=none;fillColor=none;align=center;verticalAlign=middle;whiteSpace=wrap;rounded=0;fontSize=25;" vertex="1" parent="1">
                    <mxGeometry x="2240" y="1740" width="60" height="30" as="geometry"/>
                </mxCell>
                <mxCell id="410" value="m" style="text;html=1;strokeColor=none;fillColor=none;align=center;verticalAlign=middle;whiteSpace=wrap;rounded=0;fontSize=25;" vertex="1" parent="1">
                    <mxGeometry x="2510" y="1620" width="60" height="30" as="geometry"/>
                </mxCell>
                <mxCell id="411" value="1" style="text;html=1;strokeColor=none;fillColor=none;align=center;verticalAlign=middle;whiteSpace=wrap;rounded=0;fontSize=25;" vertex="1" parent="1">
                    <mxGeometry x="2730" y="1330" width="60" height="30" as="geometry"/>
                </mxCell>
                <mxCell id="412" value="m" style="text;html=1;strokeColor=none;fillColor=none;align=center;verticalAlign=middle;whiteSpace=wrap;rounded=0;fontSize=25;" vertex="1" parent="1">
                    <mxGeometry x="2670" y="1100" width="60" height="30" as="geometry"/>
                </mxCell>
                <mxCell id="414" style="edgeStyle=none;html=1;exitX=0.5;exitY=0;exitDx=0;exitDy=0;entryX=0.5;entryY=1;entryDx=0;entryDy=0;" edge="1" parent="1" source="328" target="393">
                    <mxGeometry relative="1" as="geometry"/>
                </mxCell>
            </root>
        </mxGraphModel>
    </diagram>
</mxfile>